<?xml version="1.0" standalone="no"?>
<!DOCTYPE svg PUBLIC "-//W3C//DTD SVG 20010904//EN"
 "http://www.w3.org/TR/2001/REC-SVG-20010904/DTD/svg10.dtd">
<svg version="1.0" xmlns="http://www.w3.org/2000/svg"
 width="512.000000pt" height="512.000000pt" viewBox="0 0 512.000000 512.000000"
 preserveAspectRatio="xMidYMid meet">

<g transform="translate(0.000000,512.000000) scale(0.100000,-0.100000)"
fill="#ffffff" stroke="none" stroke-width="250" opacity="0.4">
<path d="M970 4785 c-337 -69 -587 -328 -640 -665 -8 -51 -10 -196 -8 -447 3
-357 4 -373 24 -399 39 -53 71 -69 134 -69 63 0 95 16 134 69 20 26 21 43 26
429 5 381 6 405 27 454 61 151 152 240 307 301 34 14 106 17 443 22 386 5 403
6 429 26 53 39 69 71 69 134 0 63 -16 95 -69 134 -27 20 -41 21 -419 23 -293
1 -408 -2 -457 -12z"/>
<path d="M3295 4786 c-94 -42 -124 -169 -58 -247 49 -58 57 -59 456 -59 289 0
374 -3 420 -15 159 -41 274 -145 340 -308 21 -49 22 -73 27 -454 5 -386 6
-403 26 -429 39 -53 71 -69 134 -69 63 0 95 16 134 69 20 27 21 39 21 439 0
441 0 444 -55 589 -29 77 -104 191 -175 261 -100 102 -215 168 -375 215 -77
22 -848 30 -895 8z"/>
<path d="M415 1906 c-41 -18 -83 -69 -90 -109 -4 -18 -5 -208 -3 -422 4 -414
4 -415 58 -557 66 -177 261 -372 438 -438 145 -55 148 -55 589 -55 400 0 412
1 439 21 53 39 69 71 69 134 0 63 -16 95 -69 134 -26 20 -43 21 -429 26 -381
5 -405 6 -454 27 -151 61 -240 152 -301 307 -14 34 -17 106 -22 443 -5 386 -6
403 -26 429 -11 15 -32 37 -46 47 -33 25 -113 32 -153 13z"/>
<path d="M4575 1906 c-37 -17 -70 -52 -84 -89 -7 -18 -11 -156 -11 -381 0
-199 -4 -377 -10 -407 -31 -162 -145 -294 -313 -362 -49 -21 -73 -22 -454 -27
-386 -5 -403 -6 -429 -26 -53 -39 -69 -71 -69 -134 0 -63 16 -95 69 -134 27
-20 39 -21 439 -21 441 0 444 0 589 55 178 66 372 260 438 438 55 145 55 148
55 589 0 400 -1 412 -21 439 -11 15 -32 37 -46 47 -34 25 -113 32 -153 13z"/>
</g>
</svg>
